<svg xmlns="http://www.w3.org/2000/svg" xmlns:xlink="http://www.w3.org/1999/xlink" viewBox="0 0 1000 1000"><defs><style>.cls-1{fill:none;}.cls-2{fill:#fff;}.cls-3{clip-path:url(#clip-path);}.cls-4{fill:url(#New_Gradient_Swatch_copy);}.cls-5{fill:#d10022;}.cls-6{fill:#b0001d;}.cls-7{fill:#9c001a;}.cls-8{fill:#ffb178;}.cls-9{fill:#f59549;}.cls-10{fill:#ed9453;}.cls-11{fill:#ffc694;}.cls-12{fill:#ff8870;}.cls-13{fill:#de7661;}.cls-14{clip-path:url(#clip-path-2);}.cls-15{fill:#56b8ff;}.cls-16{fill:#666;}.cls-17{fill:#dbdbdb;}.cls-18{fill:#ffe8d8;}.cls-19{fill:url(#radial-gradient);}.cls-20{fill:url(#radial-gradient-2);}</style><clipPath id="clip-path"><rect class="cls-1" width="1000" height="1000"/></clipPath><radialGradient id="New_Gradient_Swatch_copy" cx="696.02" cy="1163.86" r="893.31" gradientTransform="translate(-777.04 -490.34) scale(1 0.76)" gradientUnits="userSpaceOnUse"><stop offset="0" stop-color="#56b8ff"/><stop offset="1" stop-color="#fff"/></radialGradient><clipPath id="clip-path-2"><path class="cls-2" d="M244.31,408.1c-10.26-2.38-20.5-6.9-29.83-5.63a54.44,54.44,0,0,0-24.16,9.37s7.81,6.55,26,5.74S244.31,408.1,244.31,408.1Zm103,9.48c18.16.81,26-5.74,26-5.74a54.39,54.39,0,0,0-24.16-9.37c-9.32-1.27-19.56,3.25-29.82,5.63C319.33,408.1,329.18,416.77,347.34,417.58Z"/></clipPath><radialGradient id="radial-gradient" cx="211.65" cy="469.59" r="37.35" gradientUnits="userSpaceOnUse"><stop offset="0" stop-color="#ff8870"/><stop offset="1" stop-color="#ffb178"/></radialGradient><radialGradient id="radial-gradient-2" cx="351.98" cy="469.59" r="37.35" xlink:href="#radial-gradient"/></defs><g id="men"><g class="cls-3"><rect class="cls-4" x="-114.94" y="-268.5" width="1224" height="1333" transform="translate(99.06 895.06) rotate(-90)"/><path class="cls-5" d="M399.71,724.81c6.7,113.52,8.05,207.52,6,285.19H706.63c-1.38-150.43,1.17-261.61,1.17-261.61Z"/><path class="cls-5" d="M129.17,788.43l-298.6,160.46s1.56,22.67,5.44,61.11H231.92C200.49,948.39,166.18,875.25,129.17,788.43Z"/><polygon class="cls-6" points="494.92 749.55 412.19 762.9 304.58 846.83 268.71 855.26 134.97 828.08 54.96 853 113.79 1010 521.95 1010 494.92 749.55"/><polygon class="cls-7" points="115.12 774.95 280.81 826.23 226.3 921.1 92.2 827.54 115.12 774.95"/><polygon class="cls-7" points="406.28 706.48 280.81 826.23 371.88 886.86 450.23 743.35 406.28 706.48"/><polygon class="cls-5" points="276.98 809.94 217.16 882.22 269.48 919.69 270.33 1010 383.72 1010 332.6 904.85 362.74 847.99 276.98 809.94"/><polygon class="cls-7" points="217.16 882.22 237.46 896.76 276.98 809.94 217.16 882.22"/><polygon class="cls-6" points="115.72 754.29 276.98 809.94 225.23 904.93 90.84 821.74 115.72 754.29"/><polygon class="cls-7" points="362.74 847.99 351.04 870.05 276.98 809.94 362.74 847.99"/><polygon class="cls-6" points="396.53 688.26 276.98 809.94 365.64 871.92 448.87 737.55 396.53 688.26"/><path class="cls-2" d="M207.23,1010c-15.84-25.17-30-49.13-41.46-70.68L101.92,786.25,52.81,822.41l-8.37,133.3,40.9,6.19L48.47,1010Z"/><path class="cls-5" d="M132.17,858.76,49.31,878.25,48.45,892l88.86-20.9ZM121.88,834.1,51,850.76l-.86,13.75L127,846.43ZM111.6,809.44,52.76,823.28,51.9,837l64.84-15.25Zm30.86,74L47.58,905.74l-.86,13.74L147.6,895.76Zm-40.54-97.18L78.13,803.77l28.32-6.66Zm101.82,218.17L180,1010h27.25C206.08,1008.14,204.89,1006.27,203.74,1004.42Zm-28.3-47.51L70.19,981.66,57.53,998.18l124.75-29.34Q178.76,962.79,175.44,956.91Zm13.84,23.83L64.84,1010h57.58l74-17.41Q192.78,986.61,189.28,980.74ZM82.85,965.14l86-20.21c-1-1.88-2-3.76-3-5.61L163,932.75,57.18,957.64l28.16,4.26Zm69.89-57L45.86,933.22,45,947l112.9-26.54Z"/><path class="cls-2" d="M550.11,836.81,483.21,721.2l-60.08-10.48L434.19,876.2c-1.08,38.31-5.31,84.83-11.58,133.8H548.89c19.09-68.81,28-119.79,28-119.79l-60.6-29.64Z"/><path class="cls-5" d="M431,829.11l100.88-23.73L525,793.47l-94.88,22.31Zm-1.78-26.67,88.87-20.89-6.9-11.92-82.86,19.48ZM424.7,993.08l137-32.2c1.21-5,2.34-9.78,3.4-14.34L426.32,979.16Q425.54,986.08,424.7,993.08Zm3.13-27.82,140.47-33c1.14-5.17,2.17-9.94,3.08-14.26L429.21,951.4Q428.55,958.27,427.83,965.26ZM432.57,910l124.75-29.34-18.7-9.14L433.37,896.26Q433,903,432.57,910Zm.25-54.22,112.9-26.55-6.9-11.92L431.93,842.44Zm.9,13.33.47,7.1q-.09,3.15-.21,6.38l85.95-20.21-3.67-1.8,23.3-16.36ZM548.89,1010c.55-2,1.09-3.94,1.62-5.88l-25,5.88ZM576,889.8l-144.41,34q-.51,6.81-1.12,13.8l143.81-33.82c1.72-8.69,2.57-13.53,2.57-13.53ZM422.6,1010h45.31l86.47-20.33q1.95-7.39,3.71-14.42L423,1007Zm3.1-260.88,64.84-15.25L483.64,722l-58.83,13.83Zm26.54-33.32-29.11-5.08.78,11.74Zm-24.76,60,76.85-18.07-6.89-11.92-70.85,16.66Z"/><polygon class="cls-7" points="955.65 682.36 861.85 724.16 813.03 779.35 940.49 788.51 955.65 682.36"/><polygon class="cls-7" points="920.49 665.61 839.75 698.9 804.13 740.26 915.4 729.59 920.49 665.61"/><path class="cls-8" d="M1126.4,975.06c-46.94-64.43-240.15-344.82-240.15-344.82L780.1,685.9S884.82,890.79,948.92,1010h196.94A182.43,182.43,0,0,0,1126.4,975.06Z"/><polygon class="cls-6" points="828.71 804.43 804.13 740.26 906.07 693.64 920.49 665.61 958.05 726.11 828.71 804.43"/><polygon class="cls-7" points="906.07 693.64 931.97 740.38 897.89 706.33 906.07 693.64"/><path class="cls-5" d="M955.65,682.36l-17.9,31.53L813,779.35,904.55,1010h259C1121.81,913.15,1047.9,805.76,955.65,682.36Z"/><polygon class="cls-6" points="944.76 701.35 1019.01 817.38 955.65 682.36 944.76 701.35"/><path class="cls-8" d="M884.83,513.07a39,39,0,0,0-.9-5.2s-8.39-53.4-10-63.08h0c-1.16-7.3-9.12-48.14-9.55-52.91h0c.23-11.2-6.68-23.88-8.83-27.89-1.79-3.34-11.87-4.14-14.57-.21-2.47,3.59-4,11.8-4.68,19.68-1.39-12.31-2.77-24.88-2.82-31.91h0c.2-20.63-4.37-32.22-6-36.18s-20.94-7.18-23.77.17c-2.71,7-4.45,21.61-5.26,34.59a9.86,9.86,0,0,0-.11,1.74,8.35,8.35,0,0,0,0,1.23c.47,14.12-.78,30.51-1.54,47.75a35.93,35.93,0,0,0-.38,9.91c2.65,31.42,3.43,54.6,3,75.94-9.86-23.42-23-54.33-28.25-73.3-3.33-14-21.64-53-25.08-64.59C744,333,732.12,315,728.23,310.31c-4.42-5.31-22.6-2.67-25.23,5.75s2,26.12,6,39.72a2.09,2.09,0,0,0,0,.21c-2.89-7.35-5.47-12.14-7.58-14.17-3.46-3.33-18.17-1-21,4.31-4.1,7.74-5,21.06-1,35.82,1.84,11.74,8.62,48.38,11.21,60.54,3.26,12.34,12.62,42.85,19.72,66.23l6.92,59.89a60.47,60.47,0,0,1-8.55,5,364.78,364.78,0,0,1-35.89-16.89,27,27,0,0,0-4.61-1.94c-15.14-14-35.72-21.13-42.93-21.31-10.58-.25-18.37,12.31-19.59,20.15,11.48,7.86,24.71,19.51,34.42,32.71.63,1,1.31,2.08,2.11,3.14l.18.09.13.18c4.9,2.95,9.31,5.37,13.28,7.31,33.14,21.22,54.27,55.51,58.51,62.79.27.47.53.95.8,1.4,21.62,19,55.18,38.49,84.79,33.49,9.57-1.52,25.06-7.05,37.7-17.44,21-.39,45.72-8.63,55.16-29C903.24,625.63,902.43,550.13,884.83,513.07Z"/><path class="cls-9" d="M761.1,415.45a28.64,28.64,0,0,1-6.81,3.64,46.2,46.2,0,0,1-14.5,3,29.14,29.14,0,0,1-7.7-.65,28.33,28.33,0,0,1,6.81-3.65,45,45,0,0,1,7.13-2.08,46.37,46.37,0,0,1,7.38-.91A29.09,29.09,0,0,1,761.1,415.45Z"/><path class="cls-9" d="M742.62,357a28.83,28.83,0,0,1-6.81,3.64,46.78,46.78,0,0,1-7.13,2.09,45.38,45.38,0,0,1-7.38.91,28.29,28.29,0,0,1-7.69-.65,28.64,28.64,0,0,1,6.81-3.64,44,44,0,0,1,7.13-2.08,45.26,45.26,0,0,1,7.37-.91A28.71,28.71,0,0,1,742.62,357Z"/><path class="cls-9" d="M830.19,353.39a28.21,28.21,0,0,1-7.39,1.46,43.59,43.59,0,0,1-7.23-.1,42.54,42.54,0,0,1-7.12-1.27,27.21,27.21,0,0,1-7-2.84,27.77,27.77,0,0,1,7.38-1.47,42.53,42.53,0,0,1,7.23.11,43.6,43.6,0,0,1,7.12,1.28A27.9,27.9,0,0,1,830.19,353.39Z"/><path class="cls-9" d="M831.31,413.63a27.72,27.72,0,0,1-7.38,1.45,44.15,44.15,0,0,1-14.36-1.36,27.36,27.36,0,0,1-7-2.84,27.77,27.77,0,0,1,7.38-1.47,42.66,42.66,0,0,1,7.24.11,43.77,43.77,0,0,1,7.12,1.27A27.73,27.73,0,0,1,831.31,413.63Z"/><path class="cls-9" d="M869.37,437.24a28,28,0,0,1-7.28,1.92,45.1,45.1,0,0,1-7.24.36,42.81,42.81,0,0,1-7.19-.82,27.54,27.54,0,0,1-7.14-2.39,27.11,27.11,0,0,1,7.28-1.93A42.84,42.84,0,0,1,855,434a44,44,0,0,1,7.2.83A27.54,27.54,0,0,1,869.37,437.24Z"/><path class="cls-9" d="M859.16,395.35a14.51,14.51,0,0,1-4.82,2.15,20.15,20.15,0,0,1-9.64,0,14.32,14.32,0,0,1-4.82-2.18,14.26,14.26,0,0,1,4.83-2.15,19.82,19.82,0,0,1,9.64,0A14.41,14.41,0,0,1,859.16,395.35Z"/><path class="cls-9" d="M725.37,432.28a28.86,28.86,0,0,1-6.65,3.86,44.89,44.89,0,0,1-7,2.33,43.55,43.55,0,0,1-7.3,1.17,28.31,28.31,0,0,1-7.69-.39,28.7,28.7,0,0,1,6.65-3.87,44.39,44.39,0,0,1,7-2.32,45.81,45.81,0,0,1,7.31-1.16A28.74,28.74,0,0,1,725.37,432.28Z"/><path class="cls-9" d="M708.8,376.81a22.94,22.94,0,0,1-5.84,3.57,35.34,35.34,0,0,1-12.64,2.87,22.37,22.37,0,0,1-6.8-.7,22.72,22.72,0,0,1,5.83-3.57,33.87,33.87,0,0,1,6.19-2,34.74,34.74,0,0,1,6.45-.85A23.1,23.1,0,0,1,708.8,376.81Z"/><path class="cls-9" d="M799.94,694.72a38.76,38.76,0,0,0,12-.75,58.61,58.61,0,0,0,11.56-3.58A44.58,44.58,0,0,0,834,684.28a29.78,29.78,0,0,0,7.81-9.16,45.39,45.39,0,0,0,14.9-1.43,60.82,60.82,0,0,0,13.94-5.55,63.2,63.2,0,0,0,22.17-19.91,48.21,48.21,0,0,1-8.51,12.82,54.73,54.73,0,0,1-5.66,5.42,51.19,51.19,0,0,1-6.38,4.64,66.4,66.4,0,0,1-7,3.83,61.2,61.2,0,0,1-7.54,2.78,44.74,44.74,0,0,1-16.34,1.89l4.39-2.39a33,33,0,0,1-9,10.63,39.59,39.59,0,0,1-11.68,6.26,43.16,43.16,0,0,1-6.26,1.67c-1.06.2-2.11.39-3.17.53s-2.14.19-3.21.25a37,37,0,0,1-6.4-.21A21.32,21.32,0,0,1,799.94,694.72Z"/><path class="cls-9" d="M841.45,652.2a85.2,85.2,0,0,0-3.36-17,93.86,93.86,0,0,0-6.77-15.79,127.83,127.83,0,0,0-20.6-27.37,166,166,0,0,0-12.51-11.79c-4.37-3.72-8.83-7.35-13.46-10.75q-3.46-2.55-7-5l-7.16-4.81a106.3,106.3,0,0,1-13.68-10.94,52.46,52.46,0,0,1,16.46,6.58c2.54,1.47,5,3.15,7.38,4.81s4.8,3.4,7.15,5.16a185,185,0,0,1,26.19,23.62,119.45,119.45,0,0,1,19.88,29.16,86.79,86.79,0,0,1,5.8,16.66A75,75,0,0,1,841.45,652.2Z"/><path class="cls-9" d="M794.6,557.75c-6.69-.56-13.25-1.59-19.76-2.77s-13-2.51-19.44-4-12.84-3-19.22-4.78-12.72-3.52-19.15-5.43a108.33,108.33,0,0,1,20,1.35c6.59.92,13.12,2.18,19.58,3.66S769.47,549,775.81,551A172.27,172.27,0,0,1,794.6,557.75Z"/><path class="cls-9" d="M771.24,490.35a27.4,27.4,0,0,1-4.65,1.87,41.93,41.93,0,0,1-4.68,1.14,55.14,55.14,0,0,1-9.39.94l-2.58.06-.72-2.45c-2.25-7.57-4.37-15.22-6.35-22.9s-3.78-15.4-5.46-23.27a99.63,99.63,0,0,1,5.66,10.65c1.67,3.64,3.27,7.31,4.74,11,2.92,7.43,5.5,15,7.81,22.61l-3.31-2.39a55.19,55.19,0,0,1,9.43.32,42.1,42.1,0,0,1,4.74.84A28.13,28.13,0,0,1,771.24,490.35Z"/><path class="cls-9" d="M872.69,544.43A302.29,302.29,0,0,1,841.12,543c-10.49-.94-20.93-2.33-31.33-4s-20.74-3.85-30.94-6.56a200.27,200.27,0,0,1-30-10.17c10.34,2.17,20.59,4.18,30.87,6.11,2.58.44,5.16.89,7.72,1.39s5.16.89,7.73,1.34c5.14.95,10.31,1.78,15.47,2.63l31,5.17C852,540.6,862.34,542.38,872.69,544.43Z"/><path class="cls-9" d="M859.88,491a25.44,25.44,0,0,1-4.88.3,39.92,39.92,0,0,1-4.67-.37,54.14,54.14,0,0,1-9-2l-2.27-.7-.08-2.34q-.37-11.22-.14-22.48c.08-3.75.27-7.5.46-11.26s.5-7.52,1-11.3c1,3.69,1.58,7.42,2.2,11.15s1.08,7.46,1.48,11.2c.81,7.47,1.33,15,1.61,22.46l-2.34-3a54.11,54.11,0,0,1,8.6,3.23,37.56,37.56,0,0,1,4.11,2.26A26.39,26.39,0,0,1,859.88,491Z"/><path class="cls-9" d="M733.35,434.51c-2.77-6.34-5.26-12.76-7.63-19.22s-4.62-13-6.78-19.47-4.3-13-6.21-19.63A103.42,103.42,0,0,1,709,355.78a81.18,81.18,0,0,1,8.93,18.79c2.19,6.52,4.09,13.13,6,19.74s3.61,13.27,5.22,20S732.17,427.69,733.35,434.51Z"/><path class="cls-9" d="M840.53,433.38a124.1,124.1,0,0,1-2.8-12.57c-.74-4.2-1.32-8.41-1.79-12.64s-.91-8.44-1-12.7a44.23,44.23,0,0,1,1.59-12.93A44,44,0,0,1,840.14,395c.61,4.22.78,8.47,1,12.72s.28,8.51.19,12.78A123.64,123.64,0,0,1,840.53,433.38Z"/><path class="cls-5" d="M1010.14,992.91,707.8,748.39s-122.86,88.09-96,261.61h415Z"/><path class="cls-8" d="M178.54,539.54c-21,97.21-54.42,240-72.28,252,7.28,47.64,119.49,163.56,175.56,163.56S443.11,839.2,457.37,791.56c-17.86-12-51.3-154.81-72.27-252-11.38-52.73-54.12-89.92-103.28-89.92h0C232.66,449.62,189.91,486.81,178.54,539.54Z"/><path class="cls-8" d="M161,371s-25.48-15-35.93-27.1c-7.52,0-15.87,2.9-15.87,2.9s15.87,89.06,19.21,107.45S156,477.5,161.82,475.56,161,371,161,371Z"/><path class="cls-8" d="M402.64,371s25.49-15,35.93-27.1c7.52,0,15.88,2.9,15.88,2.9s-15.88,89.06-19.22,107.45-27.57,23.23-33.42,21.29S402.64,371,402.64,371Z"/><polygon class="cls-10" points="126.73 370.05 112.53 350.69 121.72 393.29 126.73 370.05"/><polygon class="cls-10" points="436.9 370.05 451.1 350.69 441.91 393.29 436.9 370.05"/><path class="cls-8" d="M281.82,652.8,220,649.06l-66-85.22L148.5,445.19l2-115.59a72.35,72.35,0,0,1,72.34-71.08H340.76A72.35,72.35,0,0,1,413.1,329.6l2,115.59-5.46,118.65-66,85.22Z"/><path class="cls-11" d="M340.05,258.52l1.5,5.73S383.26,367.13,386,408.83,391.6,556.2,391.6,556.2s1.41,10.54,3.93,25.91l14.14-18.27,5.46-118.65-3.28-186.67Z"/><polygon class="cls-12" points="281.82 555.63 242.52 559.66 258.45 584.76 305.18 584.76 321.11 559.66 281.82 555.63"/><polygon class="cls-13" points="281.82 539.23 258.39 537.94 242.52 559.66 321.11 559.66 305.24 537.94 281.82 539.23"/><path class="cls-10" d="M271.53,437.63s13.55-45.86-18.17-53C258.89,401.88,271.53,437.63,271.53,437.63Z"/><path class="cls-10" d="M281.82,505.43c-4.19-.29-13.55-6.46-18.68-8.1-16.61-5.32-12.26,9.13-6.77,9.61s15.09,1.8,25.45,1.82,20-1.34,25.44-1.82,9.84-14.93-6.77-9.61C295.36,499,286,505.14,281.82,505.43Z"/><path class="cls-2" d="M244.31,408.1c-10.26-2.38-20.5-6.9-29.83-5.63a54.44,54.44,0,0,0-24.16,9.37s7.81,6.55,26,5.74S244.31,408.1,244.31,408.1Zm103,9.48c18.16.81,26-5.74,26-5.74a54.39,54.39,0,0,0-24.16-9.37c-9.32-1.27-19.56,3.25-29.82,5.63C319.33,408.1,329.18,416.77,347.34,417.58Z"/><g class="cls-14"><circle class="cls-15" cx="216.72" cy="403.9" r="12.95"/><circle class="cls-15" cx="346.91" cy="403.9" r="12.95"/></g><path class="cls-16" d="M244.25,411A77.57,77.57,0,0,0,230.93,408a71.92,71.92,0,0,0-13.28-.3,93.92,93.92,0,0,0-13.23,2c-4.41,1-8.8,2.23-13.38,3.49l-1.44-2.73a44.76,44.76,0,0,1,12.91-7.23,49.87,49.87,0,0,1,14.7-3,46.47,46.47,0,0,1,15,1.64,37,37,0,0,1,13.34,6.68Z"/><path class="cls-16" d="M318.1,408.59a37,37,0,0,1,13.34-6.68,46.53,46.53,0,0,1,15-1.64,49.81,49.81,0,0,1,14.69,3A44.76,44.76,0,0,1,374,410.48l-1.44,2.73c-4.58-1.26-9-2.53-13.38-3.49a93.78,93.78,0,0,0-13.22-2,72,72,0,0,0-13.29.3A77.57,77.57,0,0,0,319.38,411Z"/><path class="cls-2" d="M376.52,346.88c-7.93-10.86-24.64,10.44-32.16,15.87s-32.59,5-32.59,5v10.83l-6.26-6.23L311.77,402c8.36-1.67,25.75-3,45.75-27.15,15-18.18,37.38,11.28,37.38,11.28S384.46,357.74,376.52,346.88Z"/><path class="cls-17" d="M316.22,395.43a13,13,0,0,0,1.83-1.07,13.48,13.48,0,0,0,1.53-1.13,12.37,12.37,0,0,0,2.34-2.43c.92-1.77.61-3.81.37-5.84s-.3-4-.45-6-.29-4-.49-6l-2.73,11.24-1.28,5.63C316.88,391.63,316.56,393.53,316.22,395.43Z"/><path class="cls-17" d="M322.48,392.84a12.82,12.82,0,0,0,1.95-.75,13,13,0,0,0,1.67-.86,12.15,12.15,0,0,0,2.65-2c1.15-1.57,1.13-3.59,1.18-5.59s.26-3.93.39-5.9.28-3.92.36-5.91l-4.25,10.44-2.05,5.25C323.66,389.27,323.08,391.06,322.48,392.84Z"/><path class="cls-2" d="M260.66,393.22l-1.94-12.41s-34.67-3.34-60.57-18.8c-13.17-7.86-13.37,9.19-16.3,15.46s-5.43,20.47-5,25.9c0,0,15.58-31.57,42.19-14.21,26.83,17.5,45.12,26.32,45.12,26.32L272,384.67Z"/><path class="cls-17" d="M260.53,407.69a13.88,13.88,0,0,1-1.93-1,15.35,15.35,0,0,1-1.63-1.08,13.31,13.31,0,0,1-2.56-2.36c-1.08-1.77-.95-3.92-.9-6s-.06-4.19-.09-6.29-.08-4.19-.06-6.3l3.74,11.47,1.79,5.77C259.53,403.79,260,405.74,260.53,407.69Z"/><path class="cls-17" d="M252.72,402.53a13.25,13.25,0,0,1-1.92-.39,14.72,14.72,0,0,1-1.66-.54,10.25,10.25,0,0,1-2.64-1.4c-1.18-1.22-1.23-3-1.35-4.77s-.39-3.43-.58-5.15-.41-3.42-.55-5.16l4.5,8.63,2.17,4.35C251.45,399.54,252.08,401,252.72,402.53Z"/><path class="cls-18" d="M161,232.07c17.11-21.51,42-54.84,121.37-54.84s104.27,33.33,121.38,54.84c11.2,14.1,18.69,29.26,18.69,43.16V440.65s-10,35.93-10,0v-109c0-25.47-22-42.45-46.49-51.94-17.85-6.92-51.21-10.08-74.63-11.5-31.26,1.42-74.63,4.58-92.48,11.5-24.52,9.49-46.49,26.47-46.49,51.94v109c0,35.93-10,0-10,0V275.23C142.34,261.33,149.83,246.17,161,232.07Z"/><path class="cls-2" d="M117.81,271.43a63.79,63.79,0,0,1,3.66-11c.85-2,1.79-3.9,2.79-5.8-.83-34.46-18-75.15,33.76-84.8-.45-8.19,0-15.71,2.82-18.49,11.36,0,84.72-15.5,105.38-36.16A245.93,245.93,0,0,1,294.11,149c16.85.59,41.43,1.31,61,1.31,20.72,20.71,51.87,54.34,43.24,92.33a78.22,78.22,0,0,0,9.45-36.54c6.72,6.71,17.56,42.36-2.07,54.75-8.94,5.65-15.95,8.3-20.93,9.5q-2.7,3.51-5.93,7l-28.15-7.55c2.26,7.38,3.36,11.69,3.36,11.69s-7.24,4.13-41.33,10.33c-6.35,1.15-13-.74-19.89-4.69A45.66,45.66,0,0,1,262.09,299c-19.72,0-25.55-.5-39-12.58-11.17.4-25,.56-30.46-.81-3.93-3.5-8.81-11.69-13.45-20.77-.06.59-.11,1.17-.2,1.75a42.12,42.12,0,0,1-1.07,5c-.37,1.62-1,3.27-1.49,4.89-2.23,6.5-5.32,13.23-7.34,20.52-.45,1.81-.76,3.61-1.14,5.49-.23,1.82-.53,3.71-.69,5.6l-.17,2.84c-.05,1-.14,1.94-.1,2.88l0,2.91,0,1.47c.06.6.2,1.37.3,2A181.57,181.57,0,0,1,169.8,354a107.35,107.35,0,0,1-1.71,17.24A72.6,72.6,0,0,1,163,388a47,47,0,0,1-9.68,14.22,31,31,0,0,1-13.67,8.11,29.93,29.93,0,0,0,9.4-10.54,40.62,40.62,0,0,0,4.42-13.42,60.36,60.36,0,0,0,.39-14.15A88.54,88.54,0,0,0,151.9,360a141.83,141.83,0,0,1-22.53-32.85,138.18,138.18,0,0,1-8.52-21.41l-1.57-5.56c-.52-1.85-.85-3.75-1.28-5.63a47.16,47.16,0,0,1-.19-23.09Zm27.37,72.63c1.52,3.46,3.16,6.92,5,10.29l.59,1.07a157.26,157.26,0,0,0-8.91-23.91c-1.75-3.75-3.36-7.6-4.78-11.52.23,1,.48,2,.75,3A145.87,145.87,0,0,0,145.18,344.06Z"/><path class="cls-17" d="M326.89,143a32.2,32.2,0,0,0-8.51-5.36,27.92,27.92,0,0,0-20.13-.82,28.66,28.66,0,0,1,20.91-1.31c7,2.12,13.08,6.65,18.06,11.93a84.17,84.17,0,0,1,12.53,17.81c1.68,3.21,3.31,6.46,4.71,9.79s2.77,6.6,4,10A152.51,152.51,0,0,1,368,227.11a110.21,110.21,0,0,1-.58,21.78,86.14,86.14,0,0,1-2.11,10.75c-.48,1.77-1,3.53-1.66,5.26a39.07,39.07,0,0,1-2.25,5.18L357,268.64c.1-1.56.18-3.34.25-5s.07-3.41.08-5.1c0-3.4,0-6.78-.16-10.16-.24-6.76-.74-13.48-1.45-20.2a316,316,0,0,0-7-40.18c-.39-1.67-.77-3.35-1.22-5s-.84-3.35-1.32-5c-.9-3.29-2-6.49-3.16-9.69A98.31,98.31,0,0,0,339,159a67.14,67.14,0,0,0-5.29-8.61A43.93,43.93,0,0,0,326.89,143Zm-7.52,119.91-2.51-6.66q-5.1-13.26-10.76-26.18c-7.5-17.24-16.2-33.87-26.86-49.16-1.38-1.89-2.72-3.81-4.16-5.66s-2.85-3.71-4.3-5.55c-3-3.62-6-7.18-9.23-10.59A116.89,116.89,0,0,0,240.19,141a66.9,66.9,0,0,0-12.42-6.39,41.67,41.67,0,0,0-13.54-3,29.23,29.23,0,0,0-6.92.54,26.87,26.87,0,0,0-6.58,2.32A29.77,29.77,0,0,0,190.3,144a29.86,29.86,0,0,1,9.81-10.59,27.54,27.54,0,0,1,3.27-1.73,26.41,26.41,0,0,1,3.48-1.3,31.51,31.51,0,0,1,7.34-1.19,45,45,0,0,1,14.73,1.88,79.66,79.66,0,0,1,13.77,5.52,126.84,126.84,0,0,1,24.41,16.65,169.73,169.73,0,0,1,20.65,21.14,197.44,197.44,0,0,1,29.58,51,218.66,218.66,0,0,1,9,27.9,167.29,167.29,0,0,1,4.79,28.94l-4.51.84c-1.58-4.46-3.19-9-4.83-13.44Zm-99.38-94a104.67,104.67,0,0,0-10.15-7.26,75.12,75.12,0,0,0-11-5.81,48.23,48.23,0,0,0-12-3.36,33.52,33.52,0,0,0-12.49.59A33.28,33.28,0,0,1,187,151.2a49.53,49.53,0,0,1,12.7,2.31c8.27,2.56,15.93,6.71,23.25,11.24a204.86,204.86,0,0,1,20.88,15.19c3.33,2.74,6.59,5.54,9.76,8.45,1.58,1.45,3.17,2.9,4.73,4.38s3.07,3,4.59,4.51a336.76,336.76,0,0,1,33.31,39c5,6.91,9.76,14,14.17,21.33a202.27,202.27,0,0,1,12,22.72l-3.89,2.44c-5.61-6.36-11-12.89-16.29-19.43s-10.51-13.13-15.71-19.71c-10.35-13.19-20.66-26.37-31.47-39.1S233,179.32,220,168.89Zm-78.61,50.56a26.67,26.67,0,0,1,4.47-8.34,27.24,27.24,0,0,1,7.27-6.29,31.75,31.75,0,0,1,4.19-2.13c1.4-.58,2.68-1,4-1.5s2.7-.87,4.06-1.3,2.75-.76,4.14-1.09a71.84,71.84,0,0,1,17.17-2A66.93,66.93,0,0,1,204,199.29,72.35,72.35,0,0,1,220.08,206a94.18,94.18,0,0,1,25.67,22.18,140.09,140.09,0,0,1,17.67,28,159.3,159.3,0,0,1,6.34,15.11,125.9,125.9,0,0,1,4.61,15.73L270,288.43a272.08,272.08,0,0,0-14.92-27.65,176.2,176.2,0,0,0-18.31-24.85,94.9,94.9,0,0,0-22.85-19.13,63.11,63.11,0,0,0-13.3-5.84,60.13,60.13,0,0,0-14.23-2.48,64.48,64.48,0,0,0-7.61.14,71.42,71.42,0,0,1,10.45,2.12,81.47,81.47,0,0,1,15.94,6.66l3.76,2.2c1.22.78,2.4,1.62,3.61,2.43s2.33,1.72,3.49,2.59l1.72,1.35,1.64,1.42a92.32,92.32,0,0,1,12,12.49A108.38,108.38,0,0,1,241,254.05a101.27,101.27,0,0,1,7.16,15.47,73,73,0,0,1,4.13,16.62L248,287.61c-6.06-9.15-11.56-18.38-17.36-27.24a199.81,199.81,0,0,0-18.77-25.29,101.9,101.9,0,0,0-11.2-11,70.69,70.69,0,0,0-13.22-8.62l-3.64-1.63a16.32,16.32,0,0,0-1.88-.69l-1.9-.64c-.63-.21-1.27-.43-1.91-.63l-1.95-.47-2-.47a14.77,14.77,0,0,0-2-.4l-3.37-.49c-.24.05-.48.11-.73.15-1.21.32-2.42.61-3.63.94s-2.46.73-3.56,1.09a23.64,23.64,0,0,0-3.08,1.18,18,18,0,0,0-8.9,8.94,35.42,35.42,0,0,0-2.74,14.17A90.86,90.86,0,0,0,147.51,252c.85,5.2,2,10.38,3.24,15.56s2.58,10.36,3.74,15.6c.58,2.62,1.11,5.26,1.47,7.92a22.28,22.28,0,0,1-.09,8,21.85,21.85,0,0,0-.68-7.88c-.59-2.59-1.35-5.13-2.15-7.67-1.62-5.07-3.42-10.09-5.13-15.17s-3.37-10.19-4.79-15.43A99.48,99.48,0,0,1,140,236.8,42.45,42.45,0,0,1,141.38,219.45Z"/><path class="cls-2" d="M481.4,767.54c2.1,1.43,4.3,2.77,6.58,4,.11-2.32.2-4.63.24-7-36.85-28-65.52-24.56-65.52-325.26H410.82c0,51.8-.7,168.31-67.79,168.31-32.2,0-47.3-14.2-51.7-20.89a36.08,36.08,0,0,1-9.51,9.77,35.78,35.78,0,0,1-9.51-9.77c-4.4,6.69-19.5,20.89-51.7,20.89-67.1,0-67.79-116.51-67.79-168.31H140.93c0,287.38-33.9,261.25-49.38,301.88a32.67,32.67,0,0,0,10.88-2.67C99.63,753,78.82,762,75.41,764.6c1,57,24.77,113.29,70.3,150.89,5.41-5,10.72-9.83,16.69-14.31s12.49-9,19.88-11.89a66.54,66.54,0,0,0-10.74,15,120.6,120.6,0,0,0-7.37,16.11c-.92,2.27-1.79,4.56-2.62,6.85q3,2,6.14,3.88a34.3,34.3,0,0,1,11.49-13,27,27,0,0,0-2.25,14.13,35,35,0,0,0,.76,4.52c28.81,15.19,63.57,24.14,104.13,24.19,48-.07,87.94-12.59,119.45-33.2a54.65,54.65,0,0,0-2.73-10.13,46.11,46.11,0,0,0-13.88-19.72,58.64,58.64,0,0,1,23.46,17.53c1.34,1.58,2.56,3.22,3.73,4.88,42.38-32.12,67.45-79.8,74.39-130.18-.62-.77-1.22-1.54-1.8-2.32a84.31,84.31,0,0,1-10-14.79c-2.51-5.11-4-10.39-3.63-15.4A48.51,48.51,0,0,0,481.4,767.54Z"/><path class="cls-17" d="M248.4,666.23a148.52,148.52,0,0,0-17.4,31.7q-1.55,4.41-2.95,8.9c-.88,3-1.58,6.09-2.31,9.16a189.63,189.63,0,0,0-3.3,18.71c-.48,3.13-.63,6.32-.92,9.47s-.53,6.31-.68,9.47c-.13,6.29-.32,12.73-.31,18.81.06,24-.17,48-.87,72-.39,12-.91,23.89-1.9,35.75-.51,5.91-1.13,11.82-2.12,17.62a80.49,80.49,0,0,1-1.85,8.57,27.46,27.46,0,0,1-3.3,7.83,26.41,26.41,0,0,0,3.89-7.48,81.32,81.32,0,0,0,2.5-8.44c1.41-5.73,2.44-11.61,3.37-17.5,1.82-11.79,3.13-23.69,4.31-35.61,2.31-23.85,4-47.77,5.69-71.69a304.38,304.38,0,0,1,12.11-70c7-22.16,16.33-43.61,29.84-60.6a61,61,0,0,0-12.68,10.24A104.35,104.35,0,0,0,248.4,666.23Zm-39.57-30.32a31.64,31.64,0,0,0-5.65,1l-2.81.83c-.92.33-1.81.74-2.72,1.13a58.78,58.78,0,0,0-19.76,14.53,85.38,85.38,0,0,0-12.8,22.67c-.81,2-1.61,4.1-2.36,6.18l-1.93,6.34-1.84,6.3-1.58,5.72a212.75,212.75,0,0,1-17.46,43.42,158.64,158.64,0,0,1-12.34,19.2,96.57,96.57,0,0,1-15.1,16.3,87.12,87.12,0,0,0,16.66-13.93A147.26,147.26,0,0,0,143.49,748a215.38,215.38,0,0,0,22.25-42l4.52-11.28,2.26-5.62,2.54-5.43a131.83,131.83,0,0,1,7.53-14.06c-.59,1.42-1.18,2.84-1.73,4.26-1.45,3.52-2.77,7-4,10.53-2.4,7-5,13.85-6.8,20.73-3.18,13.82-3.81,28-6.14,41.41a105.35,105.35,0,0,1-5.64,19.1,180.34,180.34,0,0,1-8.78,18.5,274.2,274.2,0,0,1-22.44,34.31,232.53,232.53,0,0,0,26-30.34,176.1,176.1,0,0,0,11-17.49,120.65,120.65,0,0,0,8.52-19.66c4.33-14,6.93-28.6,9-43.29,2-14,3.11-28.21,3.78-42.41.44-.68.87-1.37,1.32-2a89.65,89.65,0,0,1,14.89-16.57c5.52-4.6,11.71-8.24,18.37-9.23A22.64,22.64,0,0,0,208.83,635.91Zm146,249.27c-.86-2.69-1.71-5.36-2.48-8.07a205.49,205.49,0,0,1-6-33.58c-1.28-11.36-1.62-22.9-1.8-34.36,0-5.76.18-11.52.28-17.24l.16-18.39c-.2-24.59-3.16-50-11.81-72.64A155.31,155.31,0,0,0,316,670.26a122.2,122.2,0,0,0-10.64-13,75.3,75.3,0,0,0-12.05-10.67,185.66,185.66,0,0,1,16.22,28.59,279.27,279.27,0,0,1,12.33,31.52c1.16,3.61,2.22,7.27,3.24,10.95-1.53,15.6-2.95,31.23-3.9,46.91-1.15,17.53-2.15,35.07-2.7,52.65-.1,4.4-.24,8.8-.24,13.2l0,6.6.11,6.6.05,3.3.18,3.3c.15,2.19.15,4.4.43,6.58s.44,4.39.82,6.54.73,4.3,1.16,6.43c3.25,17.11,7.43,33.92,12.29,50.39-3.22-17.22-5.82-34.55-7.49-51.8-.22-2.15-.37-4.31-.55-6.46s-.08-4-.15-6,.13-4.15.19-6.19l.13-3.12.24-3.2.49-6.38.65-6.43c.41-4.28,1-8.59,1.49-12.89,2.3-17.2,5.25-34.33,5.09-51.84-.22-6.39-.93-12.85-1.73-19.33,1.63,9.33,2.87,18.76,3.63,28.27l1.05,17.56c.32,5.87.57,11.75.95,17.61,1,11.7,2.13,23.41,4.26,34.88a200.36,200.36,0,0,0,8.53,33.57c1,2.66,2,5.28,3.1,7.9,1.22,2.51,2.26,5.15,3.64,7.53a56.47,56.47,0,0,0,9.18,13.2A59.56,59.56,0,0,1,357.86,893C356.69,890.48,355.84,887.75,354.84,885.18ZM439.3,762q-7.05-12.11-13.31-24.78a326.84,326.84,0,0,1-20.79-52.56c-3.2-10.58-7.81-21-14-29.59a68.2,68.2,0,0,0-21.83-20.27c-8.28-4.42-17.13-6.16-25.68-6.91a61.89,61.89,0,0,0-12.84.35,49.54,49.54,0,0,0-12.54,3,101.41,101.41,0,0,1,23.37,5.72,104.87,104.87,0,0,1,22,11.2A83.56,83.56,0,0,1,373.74,656a81.1,81.1,0,0,1,9.05,9.68,92.2,92.2,0,0,1,13.8,24.22,332.69,332.69,0,0,0,25.56,50.95q7.26,12,15.3,23.17c5.34,7.45,10.88,14.69,16.73,21.51C448.92,778,444,770,439.3,762Z"/><path class="cls-2" d="M281.82,540.32c-1.93-.58-13-2.66-28.11,19.31C237,583.86,207.1,596,169.32,579.69,143.63,568.6,146,559.12,146,559.12s35.85,16.39,51.73-8.68,24.2-51.71,84.09-38.49c59.88-13.22,68.24,13.47,84.09,38.49s51.73,8.68,51.73,8.68,2.37,9.48-23.33,20.57c-37.78,16.29-67.67,4.17-84.38-20.06C294.77,537.66,283.74,539.74,281.82,540.32Z"/><path class="cls-17" d="M400,571.27a38.9,38.9,0,0,1-5.52,1.78,27.61,27.61,0,0,1-5.49.6c-7.22,0-13.08-3.56-17.5-8.9s-7.33-12.1-11.94-18c-2.44-2.9-5.44-5.67-8.31-8.68-1.46-1.5-3-3-4.59-4.51s-3.2-3.06-5-4.61a112,112,0,0,0,9.75,22.48c4.11,7.07,9,13.84,15.3,19.15a32.66,32.66,0,0,0,10.71,6,25.22,25.22,0,0,0,12.19.83,31.15,31.15,0,0,0,5.92-1.65A40.66,40.66,0,0,0,401,573a57.19,57.19,0,0,0,9.7-7.47A57.6,57.6,0,0,1,400,571.27ZM223.71,553c3.36-8.06,6.18-16.36,10.55-23.9a53.62,53.62,0,0,1,7.56-10.54c.76-.78,1.55-1.52,2.37-2.23a22.15,22.15,0,0,1,2.63-1.89,12.26,12.26,0,0,1,6.11-2,11.48,11.48,0,0,0-7.72-.79,21.09,21.09,0,0,0-3.92,1.09,32.3,32.3,0,0,0-3.61,1.73,39.75,39.75,0,0,0-11.58,10,39.2,39.2,0,0,0-3.63,6.27,61.66,61.66,0,0,0-2.52,6.62c-.39,1.31-.74,2.62-1.08,3.92a46.71,46.71,0,0,0,.09-5.43,35.62,35.62,0,0,0-.76-6.89,156,156,0,0,1-10.32,22.16c-4.08,7-8.92,13.73-15.14,19a32.16,32.16,0,0,1-10.46,6.05,25,25,0,0,1-12,1,31.88,31.88,0,0,1-5.88-1.56,41.45,41.45,0,0,1-5.47-2.7,57.13,57.13,0,0,1-9.78-7.33,54.59,54.59,0,0,0,8.79,9,41,41,0,0,0,5.41,3.71,34.32,34.32,0,0,0,6.31,2.62,29.36,29.36,0,0,0,14.37.62,36.2,36.2,0,0,0,5.31-1.53A18.53,18.53,0,0,0,200,582.39c4.43-.46,8.26-3.23,11.11-6.5a54.85,54.85,0,0,0,7.18-11C220.26,561,222,557,223.71,553Zm-10.47,9.37a53.51,53.51,0,0,1-5,11c-2.1,3.27-4.79,6-8.49,7.06-3,.88-6.55.41-9.93-.71a44.24,44.24,0,0,0,7.71-3.9,48.63,48.63,0,0,0,16.76-16.67C213.94,560.24,213.6,561.31,213.24,562.36Zm150.44,19.87c-4.37-.51-8.1-3.28-10.88-6.56a53.74,53.74,0,0,1-7-11c-1.95-3.89-3.65-7.91-5.29-12-.36-.86-.71-1.73-1.06-2.6-1.22-3.88-2.53-7.75-3.9-11.64-.47-1.53-1.18-3.22-1.83-4.84a50,50,0,0,0-2.37-4.75,28,28,0,0,0-6.19-7.34,38.65,38.65,0,0,0-3-3.39c-.79-.76-1.63-1.48-2.48-2.18a21.74,21.74,0,0,0-2.75-1.81,12.38,12.38,0,0,0-6.25-1.77,13.77,13.77,0,0,1,4.63,4.57l.08.13c-.39-.11-.79-.23-1.19-.33a27.68,27.68,0,0,0-5.56-.75,19.54,19.54,0,0,0-5.72.42A64.28,64.28,0,0,1,317.8,527.6c1.12,1.09,2.19,2.24,3.22,3.43.25.8.5,1.6.78,2.39.78,1.74,1.51,3.61,2.42,5.34s1.75,3.61,2.77,5.36c2,3.78,4.26,7.63,6.59,11.48s4.62,7.8,7.22,11.65q1.59,2.32,3.35,4.59c.56,1.3,1.1,2.6,1.62,3.92-.13-.82-.3-1.64-.45-2.46a48.16,48.16,0,0,0,4.62,4.88,26.26,26.26,0,0,0,6.16,4.25,16.82,16.82,0,0,0,7.36,1.74,16.63,16.63,0,0,0,7-1.63,24.91,24.91,0,0,0,5.66-3.64C372.36,581.11,368.05,582.76,363.68,582.23ZM239.17,534.18c-.92,1.27-1.87,2.52-2.72,3.83s-1.72,2.63-2.49,4a233.69,233.69,0,0,0-16.1,33.77c3.45-5.35,7.07-10.51,10.79-15.53s7.63-9.86,11.79-14.41c4.12-4.38,8.44-7.52,11.53-12,1.44-2.36,2.55-5.23,4-8l2.2-4.46c.82-1.59,1.65-3.21,2.51-4.86a50.71,50.71,0,0,0-15.33,10.67A71.55,71.55,0,0,0,239.17,534.18Z"/><circle class="cls-19" cx="211.65" cy="469.59" r="37.35"/><circle class="cls-20" cx="351.98" cy="469.59" r="37.35"/></g></g></svg>